# xmcd
#
# Track frame offsets:
#	150
#	19853
#	38717
#	55444
#	72904
#	90145
#
# Disc length: 1619 seconds
#
# Revision: 1
# Processed by: cddbd v1.5.2PL0 Copyright (c) Steve Scherf et al.
# Submitted via: audiograbber 1.83.01
#
DISCID=43065106
DTITLE=Jeffros blues band  - too many miles
DYEAR=2010
DGENRE=Australian Blues
TTITLE0=too many miles
TTITLE1=Start all over again
TTITLE2=Ice Cream man
TTITLE3=Sorry
TTITLE4=Flames in my heart
TTITLE5=Too many miles (extended Version)
EXTD=
EXTT0=
EXTT1=
EXTT2=
EXTT3=
EXTT4=
EXTT5=
PLAYORDER=
